<?xml version="1.0" encoding="UTF-8" standalone="no"?>
<svg
   xmlns:osb="http://www.openswatchbook.org/uri/2009/osb"
   xmlns:dc="http://purl.org/dc/elements/1.1/"
   xmlns:cc="http://creativecommons.org/ns#"
   xmlns:rdf="http://www.w3.org/1999/02/22-rdf-syntax-ns#"
   xmlns:svg="http://www.w3.org/2000/svg"
   xmlns="http://www.w3.org/2000/svg"
   xmlns:sodipodi="http://sodipodi.sourceforge.net/DTD/sodipodi-0.dtd"
   xmlns:inkscape="http://www.inkscape.org/namespaces/inkscape"
   enable-background="new 0 0 500 500"
   height="500px"
   id="Layer_1"
   version="1.1"
   viewBox="0 0 500 500"
   width="500px"
   xml:space="preserve"
   sodipodi:docname="camera_with_border.svg"
   inkscape:version="0.92.1 r15371"><metadata
     id="metadata3687"><rdf:RDF><cc:Work
         rdf:about=""><dc:format>image/svg+xml</dc:format><dc:type
           rdf:resource="http://purl.org/dc/dcmitype/StillImage" /><dc:title></dc:title></cc:Work></rdf:RDF></metadata><defs
     id="defs3685"><linearGradient
       id="linearGradient6177"
       osb:paint="solid"><stop
         style="stop-color:#9a0000;stop-opacity:1;"
         offset="0"
         id="stop6175" /></linearGradient></defs><sodipodi:namedview
     pagecolor="#ffffff"
     bordercolor="#666666"
     borderopacity="1"
     objecttolerance="10"
     gridtolerance="10"
     guidetolerance="10"
     inkscape:pageopacity="0"
     inkscape:pageshadow="2"
     inkscape:window-width="1920"
     inkscape:window-height="1028"
     id="namedview3683"
     showgrid="false"
     inkscape:zoom="1.14"
     inkscape:cx="149.94097"
     inkscape:cy="250"
     inkscape:window-x="-8"
     inkscape:window-y="-8"
     inkscape:window-maximized="1"
     inkscape:current-layer="Layer_1" /><path
     d="M277.258,276.758c0-12.54,10.176-22.715,22.712-22.715  s22.715,10.175,22.715,22.715c0,12.537-10.179,22.712-22.715,22.712S277.258,289.295,277.258,276.758z M299.97,217.701  c-32.615,0-59.056,26.441-59.056,59.057s26.44,59.052,59.056,59.052s59.057-26.436,59.057-59.052S332.585,217.701,299.97,217.701z   M31.949,381.241c0,20.079,16.264,36.34,36.34,36.34h363.421c20.078,0,36.34-16.261,36.34-36.34V172.274  c0-20.079-16.262-36.342-36.34-36.342H397.64l-46.521-46.52c-5.356-5.358-12.36-7.993-19.348-7.993h-63.511  c-6.993,0-14.081,2.635-19.352,7.993l-46.342,46.52h-34.336V115.49c0-8.811-7.08-15.9-15.901-15.9H93.274  c-8.819,0-15.899,7.089-15.899,15.9v20.442H68.29c-20.077,0-36.34,16.264-36.34,36.342V381.241z M150.061,217.701H95.548  c-9.992,0-18.173-8.177-18.173-18.17c0-9.996,8.181-18.173,18.173-18.173h54.512c9.99,0,18.17,8.177,18.17,18.173  C168.231,209.524,160.05,217.701,150.061,217.701z M299.97,181.358c52.693,0,95.396,42.705,95.396,95.4  c0,52.69-42.703,95.397-95.396,95.397c-52.694,0-95.396-42.707-95.396-95.397C204.574,224.063,247.276,181.358,299.97,181.358z"
     id="path3680"
     clip-rule="evenodd"
     fill-rule="evenodd"
     fill="#010101"
     style="stroke:#6688cc;stroke-opacity:1;opacity:0.99999999;stroke-width:10;stroke-miterlimit:4;stroke-dasharray:none" /></svg>